<?xml version="1.0" encoding="utf-8"?>
<!-- Generator: Adobe Illustrator 16.0.0, SVG Export Plug-In . SVG Version: 6.00 Build 0)  -->
<!DOCTYPE svg PUBLIC "-//W3C//DTD SVG 1.1//EN" "http://www.w3.org/Graphics/SVG/1.1/DTD/svg11.dtd">
<svg version="1.1" id="Layer_1" xmlns="http://www.w3.org/2000/svg" xmlns:xlink="http://www.w3.org/1999/xlink" x="0px" y="0px"
	 width="512px" height="512px" viewBox="0 0 512 512" enable-background="new 0 0 512 512" xml:space="preserve">
<path fill="#FFFFFF" d="M80,136c-20,0-35-15-35-35s15-36,35-36h353c20,0,36,16,36,36s-16,35-36,35H80z"/>
<path fill="#FFFFFF" d="M433,223c20,0,36,16,36,36s-16,35-36,35H80c-20,0-35-15-35-35s15-36,35-36H433z"/>
<path fill="#FFFFFF" d="M433,382c20,0,36,15,36,35s-16,36-36,36H80c-20,0-35-16-35-36s15-35,35-35H433z"/>
</svg>
